<svg width="61" height="60" viewBox="0 0 61 60" fill="none" xmlns="http://www.w3.org/2000/svg">
<rect x="0.5" width="60" height="60" rx="30" fill="url(#paint0_linear_449_248)" fill-opacity="0.05"/>
<rect x="1" y="0.5" width="59" height="59" rx="29.5" stroke="#FF8400" stroke-opacity="0.5" stroke-dasharray="5 5"/>
<path fill-rule="evenodd" clip-rule="evenodd" d="M30 38C25.9929 38 23.9893 38 22.7459 36.7541C21.5 35.5107 21.5 33.5071 21.5 29.5C21.5 25.4929 21.5 23.4893 22.7459 22.2459C23.9893 21 25.9929 21 30 21C34.0071 21 36.0107 21 37.2541 22.2459C38.5 23.4893 38.5 25.4929 38.5 29.5C38.5 33.5071 38.5 35.5107 37.2541 36.7541C36.0107 38 34.0071 38 30 38ZM31.4159 25.7211C31.4159 25.3456 31.2667 24.9855 31.0012 24.72C30.7356 24.4545 30.3755 24.3053 30 24.3053C29.6245 24.3053 29.2644 24.4545 28.9988 24.72C28.7333 24.9855 28.5841 25.3456 28.5841 25.7211V28.0841H26.2211C25.8456 28.0841 25.4855 28.2333 25.22 28.4988C24.9545 28.7644 24.8053 29.1245 24.8053 29.5C24.8053 29.8755 24.9545 30.2356 25.22 30.5012C25.4855 30.7667 25.8456 30.9159 26.2211 30.9159H28.5841V33.2789C28.5841 33.6544 28.7333 34.0145 28.9988 34.28C29.2644 34.5455 29.6245 34.6947 30 34.6947C30.3755 34.6947 30.7356 34.5455 31.0012 34.28C31.2667 34.0145 31.4159 33.6544 31.4159 33.2789V30.9159H33.7789C34.1544 30.9159 34.5145 30.7667 34.78 30.5012C35.0455 30.2356 35.1947 29.8755 35.1947 29.5C35.1947 29.1245 35.0455 28.7644 34.78 28.4988C34.5145 28.2333 34.1544 28.0841 33.7789 28.0841H31.4159V25.7211Z" fill="#FF8400"/>
<defs>
<linearGradient id="paint0_linear_449_248" x1="30.5" y1="0" x2="30.5" y2="60" gradientUnits="userSpaceOnUse">
<stop stop-color="#FF8400" stop-opacity="0"/>
<stop offset="1" stop-color="#874600"/>
</linearGradient>
</defs>
</svg>
