<svg width="500" height="60" viewBox="0 0 500 60" fill="none" xmlns="http://www.w3.org/2000/svg">
<path d="M0 4C0 1.79086 1.79086 0 4 0H496C498.209 0 500 1.79086 500 4V56C500 58.2091 498.209 60 496 60H4.00001C1.79087 60 0 58.2091 0 56V4Z" fill="white" fill-opacity="0.05"/>
<path d="M4 0.5H496C497.933 0.5 499.5 2.067 499.5 4V56C499.5 57.933 497.933 59.5 496 59.5H4C2.06701 59.5 0.5 57.933 0.5 56V4C0.5 2.067 2.067 0.5 4 0.5Z" stroke="white" stroke-opacity="0.2"/>
<g opacity="0.75">
<mask id="path-3-outside-1_25_282" maskUnits="userSpaceOnUse" x="173.5" y="20" width="152" height="18" fill="black">
<rect fill="white" x="173.5" y="20" width="152" height="18"/>
<path d="M181.02 21.4C184.56 21.4 186.815 23.185 186.815 26.11H184.275C184.275 24.59 182.95 23.635 180.99 23.635C179.355 23.635 177.72 24.305 177.72 25.73C177.72 27.02 179 27.235 181.18 27.56L181.845 27.66C184.25 28.02 187.315 28.485 187.315 31.805C187.315 34.79 184.835 36.3 181.175 36.3C177.19 36.3 174.89 34.515 174.89 31.46H177.43C177.43 33.09 178.86 34.065 181.15 34.065C183.11 34.065 184.725 33.35 184.725 31.815C184.725 30.4 183.415 30.19 181.415 29.9L180.575 29.775C178.17 29.425 175.13 28.995 175.13 25.845C175.13 22.925 177.745 21.4 181.02 21.4ZM199.549 21.7V24.02H194.899V36H192.269V24.02H187.619V21.7H199.549ZM200.968 36H198.228L203.358 21.7H207.148L212.208 36H209.408L208.283 32.635H202.113L200.968 36ZM202.873 30.395H207.533L205.218 23.485L202.873 30.395ZM215.693 36H213.063V21.7H220.058C223.088 21.7 225.063 23.405 225.063 25.965C225.063 28.22 223.498 29.71 221.098 29.78C222.188 29.86 223.038 30.635 223.663 32.025L225.448 36H222.543L220.753 32.035C220.258 30.93 219.683 30.59 218.268 30.59H215.693V36ZM215.693 28.34H219.743C221.428 28.34 222.428 27.515 222.428 26.115C222.428 24.74 221.463 23.98 219.733 23.98H215.693V28.34ZM237.87 21.7V24.02H233.22V36H230.59V24.02H225.94V21.7H237.87ZM255.945 21.7H260.185V36H257.555V23.91L253.31 36H250.11L245.915 23.91V36H243.375V21.7H247.69L251.795 33.53L255.945 21.7ZM264.365 21.7V36H261.735V21.7H264.365ZM271.665 21.4C275.205 21.4 277.46 23.185 277.46 26.11H274.92C274.92 24.59 273.595 23.635 271.635 23.635C270 23.635 268.365 24.305 268.365 25.73C268.365 27.02 269.645 27.235 271.825 27.56L272.49 27.66C274.895 28.02 277.96 28.485 277.96 31.805C277.96 34.79 275.48 36.3 271.82 36.3C267.835 36.3 265.535 34.515 265.535 31.46H268.075C268.075 33.09 269.505 34.065 271.795 34.065C273.755 34.065 275.37 33.35 275.37 31.815C275.37 30.4 274.06 30.19 272.06 29.9L271.22 29.775C268.815 29.425 265.775 28.995 265.775 25.845C265.775 22.925 268.39 21.4 271.665 21.4ZM284.868 21.4C288.408 21.4 290.663 23.185 290.663 26.11H288.123C288.123 24.59 286.798 23.635 284.838 23.635C283.203 23.635 281.568 24.305 281.568 25.73C281.568 27.02 282.848 27.235 285.028 27.56L285.693 27.66C288.098 28.02 291.163 28.485 291.163 31.805C291.163 34.79 288.683 36.3 285.023 36.3C281.038 36.3 278.738 34.515 278.738 31.46H281.278C281.278 33.09 282.708 34.065 284.998 34.065C286.958 34.065 288.573 33.35 288.573 31.815C288.573 30.4 287.263 30.19 285.263 29.9L284.423 29.775C282.018 29.425 278.978 28.995 278.978 25.845C278.978 22.925 281.593 21.4 284.868 21.4ZM294.951 21.7V36H292.321V21.7H294.951ZM296.35 28.85C296.35 24.39 299.15 21.4 303.2 21.4C307.245 21.4 310.05 24.39 310.05 28.85C310.05 33.31 307.245 36.3 303.2 36.3C299.15 36.3 296.35 33.31 296.35 28.85ZM298.99 28.85C298.99 32.095 300.545 33.97 303.2 33.97C305.85 33.97 307.41 32.095 307.41 28.85C307.41 25.605 305.85 23.73 303.2 23.73C300.545 23.73 298.99 25.605 298.99 28.85ZM324.337 21.7V36H320.392L313.982 23.785V36H311.442V21.7H315.687L321.797 33.305V21.7H324.337Z"/>
</mask>
<path d="M181.02 21.4C184.56 21.4 186.815 23.185 186.815 26.11H184.275C184.275 24.59 182.95 23.635 180.99 23.635C179.355 23.635 177.72 24.305 177.72 25.73C177.72 27.02 179 27.235 181.18 27.56L181.845 27.66C184.25 28.02 187.315 28.485 187.315 31.805C187.315 34.79 184.835 36.3 181.175 36.3C177.19 36.3 174.89 34.515 174.89 31.46H177.43C177.43 33.09 178.86 34.065 181.15 34.065C183.11 34.065 184.725 33.35 184.725 31.815C184.725 30.4 183.415 30.19 181.415 29.9L180.575 29.775C178.17 29.425 175.13 28.995 175.13 25.845C175.13 22.925 177.745 21.4 181.02 21.4ZM199.549 21.7V24.02H194.899V36H192.269V24.02H187.619V21.7H199.549ZM200.968 36H198.228L203.358 21.7H207.148L212.208 36H209.408L208.283 32.635H202.113L200.968 36ZM202.873 30.395H207.533L205.218 23.485L202.873 30.395ZM215.693 36H213.063V21.7H220.058C223.088 21.7 225.063 23.405 225.063 25.965C225.063 28.22 223.498 29.71 221.098 29.78C222.188 29.86 223.038 30.635 223.663 32.025L225.448 36H222.543L220.753 32.035C220.258 30.93 219.683 30.59 218.268 30.59H215.693V36ZM215.693 28.34H219.743C221.428 28.34 222.428 27.515 222.428 26.115C222.428 24.74 221.463 23.98 219.733 23.98H215.693V28.34ZM237.87 21.7V24.02H233.22V36H230.59V24.02H225.94V21.7H237.87ZM255.945 21.7H260.185V36H257.555V23.91L253.31 36H250.11L245.915 23.91V36H243.375V21.7H247.69L251.795 33.53L255.945 21.7ZM264.365 21.7V36H261.735V21.7H264.365ZM271.665 21.4C275.205 21.4 277.46 23.185 277.46 26.11H274.92C274.92 24.59 273.595 23.635 271.635 23.635C270 23.635 268.365 24.305 268.365 25.73C268.365 27.02 269.645 27.235 271.825 27.56L272.49 27.66C274.895 28.02 277.96 28.485 277.96 31.805C277.96 34.79 275.48 36.3 271.82 36.3C267.835 36.3 265.535 34.515 265.535 31.46H268.075C268.075 33.09 269.505 34.065 271.795 34.065C273.755 34.065 275.37 33.35 275.37 31.815C275.37 30.4 274.06 30.19 272.06 29.9L271.22 29.775C268.815 29.425 265.775 28.995 265.775 25.845C265.775 22.925 268.39 21.4 271.665 21.4ZM284.868 21.4C288.408 21.4 290.663 23.185 290.663 26.11H288.123C288.123 24.59 286.798 23.635 284.838 23.635C283.203 23.635 281.568 24.305 281.568 25.73C281.568 27.02 282.848 27.235 285.028 27.56L285.693 27.66C288.098 28.02 291.163 28.485 291.163 31.805C291.163 34.79 288.683 36.3 285.023 36.3C281.038 36.3 278.738 34.515 278.738 31.46H281.278C281.278 33.09 282.708 34.065 284.998 34.065C286.958 34.065 288.573 33.35 288.573 31.815C288.573 30.4 287.263 30.19 285.263 29.9L284.423 29.775C282.018 29.425 278.978 28.995 278.978 25.845C278.978 22.925 281.593 21.4 284.868 21.4ZM294.951 21.7V36H292.321V21.7H294.951ZM296.35 28.85C296.35 24.39 299.15 21.4 303.2 21.4C307.245 21.4 310.05 24.39 310.05 28.85C310.05 33.31 307.245 36.3 303.2 36.3C299.15 36.3 296.35 33.31 296.35 28.85ZM298.99 28.85C298.99 32.095 300.545 33.97 303.2 33.97C305.85 33.97 307.41 32.095 307.41 28.85C307.41 25.605 305.85 23.73 303.2 23.73C300.545 23.73 298.99 25.605 298.99 28.85ZM324.337 21.7V36H320.392L313.982 23.785V36H311.442V21.7H315.687L321.797 33.305V21.7H324.337Z" fill="white"/>
<path d="M186.815 26.11V27.11H187.815V26.11H186.815ZM184.275 26.11H183.275V27.11H184.275V26.11ZM181.18 27.56L181.329 26.5711L181.327 26.5709L181.18 27.56ZM181.845 27.66L181.696 28.6489L181.697 28.649L181.845 27.66ZM174.89 31.46V30.46H173.89V31.46H174.89ZM177.43 31.46H178.43V30.46H177.43V31.46ZM181.415 29.9L181.268 30.8891L181.272 30.8897L181.415 29.9ZM180.575 29.775L180.722 28.7859L180.719 28.7854L180.575 29.775ZM181.02 21.4V22.4C182.633 22.4 183.838 22.8074 184.617 23.4364C185.372 24.0456 185.815 24.9287 185.815 26.11H186.815H187.815C187.815 24.3663 187.13 22.8944 185.873 21.8799C184.64 20.8851 182.947 20.4 181.02 20.4V21.4ZM186.815 26.11V25.11H184.275V26.11V27.11H186.815V26.11ZM184.275 26.11H185.275C185.275 25.0243 184.786 24.1118 183.964 23.5002C183.17 22.9088 182.12 22.635 180.99 22.635V23.635V24.635C181.82 24.635 182.413 24.8387 182.771 25.1048C183.101 25.3507 183.275 25.6757 183.275 26.11H184.275ZM180.99 23.635V22.635C180.057 22.635 179.056 22.8229 178.251 23.277C177.42 23.7453 176.72 24.5577 176.72 25.73H177.72H178.72C178.72 25.4773 178.837 25.2422 179.233 25.0192C179.654 24.7821 180.288 24.635 180.99 24.635V23.635ZM177.72 25.73H176.72C176.72 26.2284 176.848 26.7037 177.152 27.1122C177.446 27.5062 177.843 27.7554 178.236 27.9251C178.976 28.2442 179.993 28.3941 181.033 28.5491L181.18 27.56L181.327 26.5709C180.187 26.4009 179.474 26.2808 179.029 26.0887C178.829 26.0027 178.77 25.936 178.756 25.9167C178.752 25.9119 178.72 25.8766 178.72 25.73H177.72ZM181.18 27.56L181.031 28.5489L181.696 28.6489L181.845 27.66L181.994 26.6711L181.329 26.5711L181.18 27.56ZM181.845 27.66L181.697 28.649C182.941 28.8352 184.123 29.0249 185.007 29.5024C185.426 29.7289 185.739 30.002 185.952 30.3401C186.163 30.6742 186.315 31.1351 186.315 31.805H187.315H188.315C188.315 30.8149 188.084 29.9726 187.645 29.2746C187.208 28.5805 186.605 28.0923 185.957 27.7426C184.707 27.0676 183.154 26.8448 181.993 26.671L181.845 27.66ZM187.315 31.805H186.315C186.315 32.9776 185.849 33.7918 185.046 34.3513C184.196 34.9434 182.888 35.3 181.175 35.3V36.3V37.3C183.122 37.3 184.884 36.9016 186.189 35.9924C187.541 35.0507 188.315 33.6174 188.315 31.805H187.315ZM181.175 36.3V35.3C179.315 35.3 177.988 34.8812 177.149 34.2339C176.346 33.6139 175.89 32.7096 175.89 31.46H174.89H173.89C173.89 33.2654 174.584 34.7811 175.927 35.8173C177.235 36.8263 179.05 37.3 181.175 37.3V36.3ZM174.89 31.46V32.46H177.43V31.46V30.46H174.89V31.46ZM177.43 31.46H176.43C176.43 32.6107 176.955 33.5652 177.86 34.1949C178.727 34.7974 179.881 35.065 181.15 35.065V34.065V33.065C180.129 33.065 179.423 32.8451 179.002 32.5526C178.62 32.2873 178.43 31.9393 178.43 31.46H177.43ZM181.15 34.065V35.065C182.229 35.065 183.315 34.8716 184.169 34.3839C185.065 33.8717 185.725 33.0093 185.725 31.815H184.725H183.725C183.725 32.1557 183.577 32.4183 183.176 32.6473C182.733 32.9009 182.031 33.065 181.15 33.065V34.065ZM184.725 31.815H185.725C185.725 31.3004 185.603 30.8133 185.312 30.3916C185.026 29.9775 184.635 29.7096 184.238 29.5271C183.499 29.1875 182.505 29.0476 181.558 28.9103L181.415 29.9L181.272 30.8897C182.325 31.0424 182.986 31.1525 183.402 31.3441C183.583 31.4273 183.644 31.4953 183.666 31.5277C183.683 31.5523 183.725 31.6221 183.725 31.815H184.725ZM181.415 29.9L181.562 28.9109L180.722 28.7859L180.575 29.775L180.428 30.7641L181.268 30.8891L181.415 29.9ZM180.575 29.775L180.719 28.7854C179.472 28.6039 178.291 28.4245 177.408 27.9706C176.988 27.755 176.682 27.4983 176.477 27.1879C176.277 26.8839 176.13 26.4638 176.13 25.845H175.13H174.13C174.13 26.8012 174.363 27.6161 174.808 28.2896C175.248 28.9567 175.852 29.42 176.494 29.7494C177.731 30.3855 179.273 30.5961 180.431 30.7646L180.575 29.775ZM175.13 25.845H176.13C176.13 24.7288 176.61 23.9156 177.421 23.346C178.269 22.7513 179.521 22.4 181.02 22.4V21.4V20.4C179.244 20.4 177.551 20.8112 176.272 21.709C174.958 22.6319 174.13 24.0412 174.13 25.845H175.13ZM199.549 21.7H200.549V20.7H199.549V21.7ZM199.549 24.02V25.02H200.549V24.02H199.549ZM194.899 24.02V23.02H193.899V24.02H194.899ZM194.899 36V37H195.899V36H194.899ZM192.269 36H191.269V37H192.269V36ZM192.269 24.02H193.269V23.02H192.269V24.02ZM187.619 24.02H186.619V25.02H187.619V24.02ZM187.619 21.7V20.7H186.619V21.7H187.619ZM199.549 21.7H198.549V24.02H199.549H200.549V21.7H199.549ZM199.549 24.02V23.02H194.899V24.02V25.02H199.549V24.02ZM194.899 24.02H193.899V36H194.899H195.899V24.02H194.899ZM194.899 36V35H192.269V36V37H194.899V36ZM192.269 36H193.269V24.02H192.269H191.269V36H192.269ZM192.269 24.02V23.02H187.619V24.02V25.02H192.269V24.02ZM187.619 24.02H188.619V21.7H187.619H186.619V24.02H187.619ZM187.619 21.7V22.7H199.549V21.7V20.7H187.619V21.7ZM200.968 36V37H201.684L201.915 36.3221L200.968 36ZM198.228 36L197.287 35.6623L196.807 37H198.228V36ZM203.358 21.7V20.7H202.654L202.417 21.3623L203.358 21.7ZM207.148 21.7L208.091 21.3664L207.855 20.7H207.148V21.7ZM212.208 36V37H213.622L213.151 35.6664L212.208 36ZM209.408 36L208.459 36.3171L208.688 37H209.408V36ZM208.283 32.635L209.231 32.3179L209.003 31.635H208.283V32.635ZM202.113 32.635V31.635H201.397L201.166 32.3129L202.113 32.635ZM202.873 30.395L201.926 30.0736L201.477 31.395H202.873V30.395ZM207.533 30.395V31.395H208.922L208.481 30.0773L207.533 30.395ZM205.218 23.485L206.166 23.1673L205.224 20.3553L204.271 23.1636L205.218 23.485ZM200.968 36V35H198.228V36V37H200.968V36ZM198.228 36L199.169 36.3377L204.299 22.0377L203.358 21.7L202.417 21.3623L197.287 35.6623L198.228 36ZM203.358 21.7V22.7H207.148V21.7V20.7H203.358V21.7ZM207.148 21.7L206.205 22.0336L211.265 36.3336L212.208 36L213.151 35.6664L208.091 21.3664L207.148 21.7ZM212.208 36V35H209.408V36V37H212.208V36ZM209.408 36L210.356 35.6829L209.231 32.3179L208.283 32.635L207.334 32.9521L208.459 36.3171L209.408 36ZM208.283 32.635V31.635H202.113V32.635V33.635H208.283V32.635ZM202.113 32.635L201.166 32.3129L200.021 35.6779L200.968 36L201.915 36.3221L203.06 32.9571L202.113 32.635ZM202.873 30.395V31.395H207.533V30.395V29.395H202.873V30.395ZM207.533 30.395L208.481 30.0773L206.166 23.1673L205.218 23.485L204.27 23.8027L206.585 30.7127L207.533 30.395ZM205.218 23.485L204.271 23.1636L201.926 30.0736L202.873 30.395L203.82 30.7164L206.165 23.8064L205.218 23.485ZM215.693 36V37H216.693V36H215.693ZM213.063 36H212.063V37H213.063V36ZM213.063 21.7V20.7H212.063V21.7H213.063ZM221.098 29.78L221.069 28.7804L221.025 30.7773L221.098 29.78ZM223.663 32.025L224.575 31.6154L224.575 31.6149L223.663 32.025ZM225.448 36V37H226.993L226.36 35.5904L225.448 36ZM222.543 36L221.632 36.4115L221.897 37H222.543V36ZM220.753 32.035L219.84 32.4438L219.842 32.4465L220.753 32.035ZM215.693 30.59V29.59H214.693V30.59H215.693ZM215.693 28.34H214.693V29.34H215.693V28.34ZM215.693 23.98V22.98H214.693V23.98H215.693ZM215.693 36V35H213.063V36V37H215.693V36ZM213.063 36H214.063V21.7H213.063H212.063V36H213.063ZM213.063 21.7V22.7H220.058V21.7V20.7H213.063V21.7ZM220.058 21.7V22.7C221.391 22.7 222.394 23.0742 223.047 23.6324C223.685 24.1783 224.063 24.9609 224.063 25.965H225.063H226.063C226.063 24.4091 225.454 23.0592 224.347 22.1126C223.254 21.1783 221.755 20.7 220.058 20.7V21.7ZM225.063 25.965H224.063C224.063 26.8506 223.762 27.5158 223.288 27.9702C222.808 28.431 222.069 28.7512 221.069 28.7804L221.098 29.78L221.127 30.7796C222.527 30.7388 223.771 30.279 224.673 29.4135C225.582 28.5416 226.063 27.3344 226.063 25.965H225.063ZM221.098 29.78L221.025 30.7773C221.59 30.8188 222.198 31.2047 222.751 32.4351L223.663 32.025L224.575 31.6149C223.878 30.0653 222.786 28.9012 221.171 28.7827L221.098 29.78ZM223.663 32.025L222.751 32.4346L224.536 36.4096L225.448 36L226.36 35.5904L224.575 31.6154L223.663 32.025ZM225.448 36V35H222.543V36V37H225.448V36ZM222.543 36L223.454 35.5885L221.664 31.6235L220.753 32.035L219.842 32.4465L221.632 36.4115L222.543 36ZM220.753 32.035L221.666 31.6262C221.378 30.9837 220.999 30.4072 220.359 30.0343C219.745 29.6758 219.03 29.59 218.268 29.59V30.59V31.59C218.921 31.59 219.201 31.6742 219.352 31.7619C219.477 31.8353 219.633 31.9813 219.84 32.4438L220.753 32.035ZM218.268 30.59V29.59H215.693V30.59V31.59H218.268V30.59ZM215.693 30.59H214.693V36H215.693H216.693V30.59H215.693ZM215.693 28.34V29.34H219.743V28.34V27.34H215.693V28.34ZM219.743 28.34V29.34C220.736 29.34 221.66 29.0978 222.355 28.5229C223.075 27.927 223.428 27.0721 223.428 26.115H222.428H221.428C221.428 26.5579 221.281 26.8155 221.08 26.9821C220.853 27.1697 220.435 27.34 219.743 27.34V28.34ZM222.428 26.115H223.428C223.428 25.1722 223.084 24.3283 222.35 23.7476C221.652 23.1954 220.725 22.98 219.733 22.98V23.98V24.98C220.471 24.98 220.892 25.1446 221.109 25.3162C221.29 25.4592 221.428 25.6828 221.428 26.115H222.428ZM219.733 23.98V22.98H215.693V23.98V24.98H219.733V23.98ZM215.693 23.98H214.693V28.34H215.693H216.693V23.98H215.693ZM237.87 21.7H238.87V20.7H237.87V21.7ZM237.87 24.02V25.02H238.87V24.02H237.87ZM233.22 24.02V23.02H232.22V24.02H233.22ZM233.22 36V37H234.22V36H233.22ZM230.59 36H229.59V37H230.59V36ZM230.59 24.02H231.59V23.02H230.59V24.02ZM225.94 24.02H224.94V25.02H225.94V24.02ZM225.94 21.7V20.7H224.94V21.7H225.94ZM237.87 21.7H236.87V24.02H237.87H238.87V21.7H237.87ZM237.87 24.02V23.02H233.22V24.02V25.02H237.87V24.02ZM233.22 24.02H232.22V36H233.22H234.22V24.02H233.22ZM233.22 36V35H230.59V36V37H233.22V36ZM230.59 36H231.59V24.02H230.59H229.59V36H230.59ZM230.59 24.02V23.02H225.94V24.02V25.02H230.59V24.02ZM225.94 24.02H226.94V21.7H225.94H224.94V24.02H225.94ZM225.94 21.7V22.7H237.87V21.7V20.7H225.94V21.7ZM255.945 21.7V20.7H255.237L255.002 21.369L255.945 21.7ZM260.185 21.7H261.185V20.7H260.185V21.7ZM260.185 36V37H261.185V36H260.185ZM257.555 36H256.555V37H257.555V36ZM257.555 23.91H258.555L256.612 23.5787L257.555 23.91ZM253.31 36V37H254.019L254.254 36.3313L253.31 36ZM250.11 36L249.166 36.3278L249.399 37H250.11V36ZM245.915 23.91L246.86 23.5822L244.915 23.91H245.915ZM245.915 36V37H246.915V36H245.915ZM243.375 36H242.375V37H243.375V36ZM243.375 21.7V20.7H242.375V21.7H243.375ZM247.69 21.7L248.635 21.3722L248.402 20.7H247.69V21.7ZM251.795 33.53L250.851 33.8578L251.79 36.5656L252.739 33.861L251.795 33.53ZM255.945 21.7V22.7H260.185V21.7V20.7H255.945V21.7ZM260.185 21.7H259.185V36H260.185H261.185V21.7H260.185ZM260.185 36V35H257.555V36V37H260.185V36ZM257.555 36H258.555V23.91H257.555H256.555V36H257.555ZM257.555 23.91L256.612 23.5787L252.367 35.6687L253.31 36L254.254 36.3313L258.499 24.2413L257.555 23.91ZM253.31 36V35H250.11V36V37H253.31V36ZM250.11 36L251.055 35.6722L246.86 23.5822L245.915 23.91L244.971 24.2378L249.166 36.3278L250.11 36ZM245.915 23.91H244.915V36H245.915H246.915V23.91H245.915ZM245.915 36V35H243.375V36V37H245.915V36ZM243.375 36H244.375V21.7H243.375H242.375V36H243.375ZM243.375 21.7V22.7H247.69V21.7V20.7H243.375V21.7ZM247.69 21.7L246.746 22.0278L250.851 33.8578L251.795 33.53L252.74 33.2022L248.635 21.3722L247.69 21.7ZM251.795 33.53L252.739 33.861L256.889 22.031L255.945 21.7L255.002 21.369L250.852 33.199L251.795 33.53ZM264.365 21.7H265.365V20.7H264.365V21.7ZM264.365 36V37H265.365V36H264.365ZM261.735 36H260.735V37H261.735V36ZM261.735 21.7V20.7H260.735V21.7H261.735ZM264.365 21.7H263.365V36H264.365H265.365V21.7H264.365ZM264.365 36V35H261.735V36V37H264.365V36ZM261.735 36H262.735V21.7H261.735H260.735V36H261.735ZM261.735 21.7V22.7H264.365V21.7V20.7H261.735V21.7ZM277.46 26.11V27.11H278.46V26.11H277.46ZM274.92 26.11H273.92V27.11H274.92V26.11ZM271.825 27.56L271.973 26.5711L271.972 26.5709L271.825 27.56ZM272.49 27.66L272.341 28.6489L272.341 28.649L272.49 27.66ZM265.535 31.46V30.46H264.535V31.46H265.535ZM268.075 31.46H269.075V30.46H268.075V31.46ZM272.06 29.9L271.912 30.8891L271.916 30.8897L272.06 29.9ZM271.22 29.775L271.367 28.7859L271.364 28.7854L271.22 29.775ZM271.665 21.4V22.4C273.278 22.4 274.482 22.8074 275.262 23.4364C276.017 24.0456 276.46 24.9287 276.46 26.11H277.46H278.46C278.46 24.3663 277.775 22.8944 276.517 21.8799C275.285 20.8851 273.591 20.4 271.665 20.4V21.4ZM277.46 26.11V25.11H274.92V26.11V27.11H277.46V26.11ZM274.92 26.11H275.92C275.92 25.0243 275.431 24.1118 274.609 23.5002C273.814 22.9088 272.764 22.635 271.635 22.635V23.635V24.635C272.465 24.635 273.057 24.8387 273.415 25.1048C273.746 25.3507 273.92 25.6757 273.92 26.11H274.92ZM271.635 23.635V22.635C270.701 22.635 269.701 22.8229 268.895 23.277C268.065 23.7453 267.365 24.5577 267.365 25.73H268.365H269.365C269.365 25.4773 269.482 25.2422 269.877 25.0192C270.298 24.7821 270.933 24.635 271.635 24.635V23.635ZM268.365 25.73H267.365C267.365 26.2284 267.492 26.7037 267.797 27.1122C268.091 27.5062 268.488 27.7554 268.881 27.9251C269.621 28.2442 270.638 28.3941 271.677 28.5491L271.825 27.56L271.972 26.5709C270.832 26.4009 270.118 26.2808 269.673 26.0887C269.474 26.0027 269.415 25.936 269.4 25.9167C269.397 25.9119 269.365 25.8766 269.365 25.73H268.365ZM271.825 27.56L271.676 28.5489L272.341 28.6489L272.49 27.66L272.638 26.6711L271.973 26.5711L271.825 27.56ZM272.49 27.66L272.341 28.649C273.586 28.8352 274.767 29.0249 275.651 29.5024C276.071 29.7289 276.384 30.002 276.597 30.3401C276.807 30.6742 276.96 31.1351 276.96 31.805H277.96H278.96C278.96 30.8149 278.729 29.9726 278.289 29.2746C277.852 28.5805 277.249 28.0923 276.602 27.7426C275.352 27.0676 273.798 26.8448 272.638 26.671L272.49 27.66ZM277.96 31.805H276.96C276.96 32.9776 276.494 33.7918 275.69 34.3513C274.84 34.9434 273.533 35.3 271.82 35.3V36.3V37.3C273.766 37.3 275.529 36.9016 276.834 35.9924C278.185 35.0507 278.96 33.6174 278.96 31.805H277.96ZM271.82 36.3V35.3C269.959 35.3 268.632 34.8812 267.794 34.2339C266.99 33.6139 266.535 32.7096 266.535 31.46H265.535H264.535C264.535 33.2654 265.229 34.7811 266.572 35.8173C267.879 36.8263 269.695 37.3 271.82 37.3V36.3ZM265.535 31.46V32.46H268.075V31.46V30.46H265.535V31.46ZM268.075 31.46H267.075C267.075 32.6107 267.599 33.5652 268.505 34.1949C269.372 34.7974 270.526 35.065 271.795 35.065V34.065V33.065C270.774 33.065 270.067 32.8451 269.647 32.5526C269.265 32.2873 269.075 31.9393 269.075 31.46H268.075ZM271.795 34.065V35.065C272.874 35.065 273.959 34.8716 274.813 34.3839C275.71 33.8717 276.37 33.0093 276.37 31.815H275.37H274.37C274.37 32.1557 274.222 32.4183 273.821 32.6473C273.377 32.9009 272.675 33.065 271.795 33.065V34.065ZM275.37 31.815H276.37C276.37 31.3004 276.248 30.8133 275.957 30.3916C275.671 29.9775 275.279 29.7096 274.882 29.5271C274.144 29.1875 273.149 29.0476 272.203 28.9103L272.06 29.9L271.916 30.8897C272.97 31.0424 273.63 31.1525 274.047 31.3441C274.227 31.4273 274.288 31.4953 274.311 31.5277C274.328 31.5523 274.37 31.6221 274.37 31.815H275.37ZM272.06 29.9L272.207 28.9109L271.367 28.7859L271.22 29.775L271.072 30.7641L271.912 30.8891L272.06 29.9ZM271.22 29.775L271.364 28.7854C270.116 28.6039 268.936 28.4245 268.052 27.9706C267.633 27.755 267.327 27.4983 267.122 27.1879C266.921 26.8839 266.775 26.4638 266.775 25.845H265.775H264.775C264.775 26.8012 265.008 27.6161 265.453 28.2896C265.893 28.9567 266.497 29.42 267.138 29.7494C268.376 30.3855 269.918 30.5961 271.076 30.7646L271.22 29.775ZM265.775 25.845H266.775C266.775 24.7288 267.254 23.9156 268.066 23.346C268.913 22.7513 270.165 22.4 271.665 22.4V21.4V20.4C269.889 20.4 268.196 20.8112 266.917 21.709C265.602 22.6319 264.775 24.0412 264.775 25.845H265.775ZM290.663 26.11V27.11H291.663V26.11H290.663ZM288.123 26.11H287.123V27.11H288.123V26.11ZM285.028 27.56L285.176 26.5711L285.175 26.5709L285.028 27.56ZM285.693 27.66L285.544 28.6489L285.545 28.649L285.693 27.66ZM278.738 31.46V30.46H277.738V31.46H278.738ZM281.278 31.46H282.278V30.46H281.278V31.46ZM285.263 29.9L285.115 30.8891L285.119 30.8897L285.263 29.9ZM284.423 29.775L284.57 28.7859L284.567 28.7854L284.423 29.775ZM284.868 21.4V22.4C286.481 22.4 287.685 22.8074 288.465 23.4364C289.22 24.0456 289.663 24.9287 289.663 26.11H290.663H291.663C291.663 24.3663 290.978 22.8944 289.721 21.8799C288.488 20.8851 286.794 20.4 284.868 20.4V21.4ZM290.663 26.11V25.11H288.123V26.11V27.11H290.663V26.11ZM288.123 26.11H289.123C289.123 25.0243 288.634 24.1118 287.812 23.5002C287.017 22.9088 285.967 22.635 284.838 22.635V23.635V24.635C285.668 24.635 286.261 24.8387 286.618 25.1048C286.949 25.3507 287.123 25.6757 287.123 26.11H288.123ZM284.838 23.635V22.635C283.905 22.635 282.904 22.8229 282.098 23.277C281.268 23.7453 280.568 24.5577 280.568 25.73H281.568H282.568C282.568 25.4773 282.685 25.2422 283.081 25.0192C283.501 24.7821 284.136 24.635 284.838 24.635V23.635ZM281.568 25.73H280.568C280.568 26.2284 280.695 26.7037 281 27.1122C281.294 27.5062 281.691 27.7554 282.084 27.9251C282.824 28.2442 283.841 28.3941 284.88 28.5491L285.028 27.56L285.175 26.5709C284.035 26.4009 283.322 26.2808 282.876 26.0887C282.677 26.0027 282.618 25.936 282.603 25.9167C282.6 25.9119 282.568 25.8766 282.568 25.73H281.568ZM285.028 27.56L284.879 28.5489L285.544 28.6489L285.693 27.66L285.841 26.6711L285.176 26.5711L285.028 27.56ZM285.693 27.66L285.545 28.649C286.789 28.8352 287.97 29.0249 288.854 29.5024C289.274 29.7289 289.587 30.002 289.8 30.3401C290.01 30.6742 290.163 31.1351 290.163 31.805H291.163H292.163C292.163 30.8149 291.932 29.9726 291.492 29.2746C291.055 28.5805 290.452 28.0923 289.805 27.7426C288.555 27.0676 287.001 26.8448 285.841 26.671L285.693 27.66ZM291.163 31.805H290.163C290.163 32.9776 289.697 33.7918 288.894 34.3513C288.044 34.9434 286.736 35.3 285.023 35.3V36.3V37.3C286.969 37.3 288.732 36.9016 290.037 35.9924C291.388 35.0507 292.163 33.6174 292.163 31.805H291.163ZM285.023 36.3V35.3C283.162 35.3 281.835 34.8812 280.997 34.2339C280.193 33.6139 279.738 32.7096 279.738 31.46H278.738H277.738C277.738 33.2654 278.432 34.7811 279.775 35.8173C281.082 36.8263 282.898 37.3 285.023 37.3V36.3ZM278.738 31.46V32.46H281.278V31.46V30.46H278.738V31.46ZM281.278 31.46H280.278C280.278 32.6107 280.802 33.5652 281.708 34.1949C282.575 34.7974 283.729 35.065 284.998 35.065V34.065V33.065C283.977 33.065 283.27 32.8451 282.85 32.5526C282.468 32.2873 282.278 31.9393 282.278 31.46H281.278ZM284.998 34.065V35.065C286.077 35.065 287.163 34.8716 288.016 34.3839C288.913 33.8717 289.573 33.0093 289.573 31.815H288.573H287.573C287.573 32.1557 287.425 32.4183 287.024 32.6473C286.58 32.9009 285.878 33.065 284.998 33.065V34.065ZM288.573 31.815H289.573C289.573 31.3004 289.451 30.8133 289.16 30.3916C288.874 29.9775 288.482 29.7096 288.086 29.5271C287.347 29.1875 286.353 29.0476 285.406 28.9103L285.263 29.9L285.119 30.8897C286.173 31.0424 286.833 31.1525 287.25 31.3441C287.431 31.4273 287.491 31.4953 287.514 31.5277C287.531 31.5523 287.573 31.6221 287.573 31.815H288.573ZM285.263 29.9L285.41 28.9109L284.57 28.7859L284.423 29.775L284.275 30.7641L285.115 30.8891L285.263 29.9ZM284.423 29.775L284.567 28.7854C283.32 28.6039 282.139 28.4245 281.255 27.9706C280.836 27.755 280.53 27.4983 280.325 27.1879C280.124 26.8839 279.978 26.4638 279.978 25.845H278.978H277.978C277.978 26.8012 278.211 27.6161 278.656 28.2896C279.096 28.9567 279.7 29.42 280.341 29.7494C281.579 30.3855 283.121 30.5961 284.279 30.7646L284.423 29.775ZM278.978 25.845H279.978C279.978 24.7288 280.458 23.9156 281.269 23.346C282.116 22.7513 283.369 22.4 284.868 22.4V21.4V20.4C283.092 20.4 281.399 20.8112 280.12 21.709C278.805 22.6319 277.978 24.0412 277.978 25.845H278.978ZM294.951 21.7H295.951V20.7H294.951V21.7ZM294.951 36V37H295.951V36H294.951ZM292.321 36H291.321V37H292.321V36ZM292.321 21.7V20.7H291.321V21.7H292.321ZM294.951 21.7H293.951V36H294.951H295.951V21.7H294.951ZM294.951 36V35H292.321V36V37H294.951V36ZM292.321 36H293.321V21.7H292.321H291.321V36H292.321ZM292.321 21.7V22.7H294.951V21.7V20.7H292.321V21.7ZM296.35 28.85H297.35C297.35 26.8295 297.982 25.2227 298.991 24.1313C299.994 23.0459 301.433 22.4 303.2 22.4V21.4V20.4C300.918 20.4 298.932 21.2491 297.522 22.7737C296.119 24.2923 295.35 26.4105 295.35 28.85H296.35ZM303.2 21.4V22.4C304.965 22.4 306.404 23.0458 307.408 24.1315C308.418 25.2232 309.05 26.83 309.05 28.85H310.05H311.05C311.05 26.41 310.281 24.2918 308.877 22.7735C307.467 21.2492 305.481 20.4 303.2 20.4V21.4ZM310.05 28.85H309.05C309.05 30.87 308.418 32.4768 307.408 33.5685C306.404 34.6542 304.965 35.3 303.2 35.3V36.3V37.3C305.481 37.3 307.467 36.4508 308.877 34.9265C310.281 33.4082 311.05 31.29 311.05 28.85H310.05ZM303.2 36.3V35.3C301.433 35.3 299.994 34.6541 298.991 33.5687C297.982 32.4773 297.35 30.8705 297.35 28.85H296.35H295.35C295.35 31.2895 296.119 33.4077 297.522 34.9263C298.932 36.4509 300.918 37.3 303.2 37.3V36.3ZM298.99 28.85H297.99C297.99 30.6181 298.413 32.1524 299.328 33.2629C300.265 34.4001 301.619 34.97 303.2 34.97V33.97V32.97C302.127 32.97 301.376 32.6024 300.872 31.9909C300.345 31.3526 299.99 30.3269 299.99 28.85H298.99ZM303.2 33.97V34.97C304.78 34.97 306.133 34.3998 307.071 33.2632C307.986 32.153 308.41 30.6188 308.41 28.85H307.41H306.41C306.41 30.3262 306.055 31.352 305.528 31.9905C305.023 32.6027 304.271 32.97 303.2 32.97V33.97ZM307.41 28.85H308.41C308.41 27.0812 307.986 25.547 307.071 24.4368C306.133 23.3002 304.78 22.73 303.2 22.73V23.73V24.73C304.271 24.73 305.023 25.0973 305.528 25.7094C306.055 26.348 306.41 27.3738 306.41 28.85H307.41ZM303.2 23.73V22.73C301.619 22.73 300.265 23.2999 299.328 24.4371C298.413 25.5476 297.99 27.0819 297.99 28.85H298.99H299.99C299.99 27.3731 300.345 26.3474 300.872 25.7091C301.376 25.0976 302.127 24.73 303.2 24.73V23.73ZM324.337 21.7H325.337V20.7H324.337V21.7ZM324.337 36V37H325.337V36H324.337ZM320.392 36L319.506 36.4647L319.787 37H320.392V36ZM313.982 23.785L314.867 23.3203L312.982 23.785H313.982ZM313.982 36V37H314.982V36H313.982ZM311.442 36H310.442V37H311.442V36ZM311.442 21.7V20.7H310.442V21.7H311.442ZM315.687 21.7L316.572 21.2341L316.291 20.7H315.687V21.7ZM321.797 33.305L320.912 33.7709L322.797 33.305H321.797ZM321.797 21.7V20.7H320.797V21.7H321.797ZM324.337 21.7H323.337V36H324.337H325.337V21.7H324.337ZM324.337 36V35H320.392V36V37H324.337V36ZM320.392 36L321.277 35.5353L314.867 23.3203L313.982 23.785L313.096 24.2497L319.506 36.4647L320.392 36ZM313.982 23.785H312.982V36H313.982H314.982V23.785H313.982ZM313.982 36V35H311.442V36V37H313.982V36ZM311.442 36H312.442V21.7H311.442H310.442V36H311.442ZM311.442 21.7V22.7H315.687V21.7V20.7H311.442V21.7ZM315.687 21.7L314.802 22.1659L320.912 33.7709L321.797 33.305L322.682 32.8391L316.572 21.2341L315.687 21.7ZM321.797 33.305H322.797V21.7H321.797H320.797V33.305H321.797ZM321.797 21.7V22.7H324.337V21.7V20.7H321.797V21.7Z" fill="black" mask="url(#path-3-outside-1_25_282)"/>
</g>
</svg>
