<svg width="500" height="60" viewBox="0 0 500 60" fill="none" xmlns="http://www.w3.org/2000/svg">
<path d="M0 4C0 1.79086 1.79086 0 4 0H496C498.209 0 500 1.79086 500 4V56C500 58.2091 498.209 60 496 60H4.00001C1.79087 60 0 58.2091 0 56V4Z" fill="#00FFAE"/>
<path d="M4 0.5H496C497.933 0.5 499.5 2.067 499.5 4V56C499.5 57.933 497.933 59.5 496 59.5H4C2.06701 59.5 0.5 57.933 0.5 56V4C0.5 2.067 2.067 0.5 4 0.5Z" stroke="#00FFAE" stroke-opacity="0.2"/>
<path d="M181.02 21.4C184.56 21.4 186.815 23.185 186.815 26.11H184.275C184.275 24.59 182.95 23.635 180.99 23.635C179.355 23.635 177.72 24.305 177.72 25.73C177.72 27.02 179 27.235 181.18 27.56L181.845 27.66C184.25 28.02 187.315 28.485 187.315 31.805C187.315 34.79 184.835 36.3 181.175 36.3C177.19 36.3 174.89 34.515 174.89 31.46H177.43C177.43 33.09 178.86 34.065 181.15 34.065C183.11 34.065 184.725 33.35 184.725 31.815C184.725 30.4 183.415 30.19 181.415 29.9L180.575 29.775C178.17 29.425 175.13 28.995 175.13 25.845C175.13 22.925 177.745 21.4 181.02 21.4ZM199.549 21.7V24.02H194.899V36H192.269V24.02H187.619V21.7H199.549ZM200.968 36H198.228L203.358 21.7H207.148L212.208 36H209.408L208.283 32.635H202.113L200.968 36ZM202.873 30.395H207.533L205.218 23.485L202.873 30.395ZM215.693 36H213.063V21.7H220.058C223.088 21.7 225.063 23.405 225.063 25.965C225.063 28.22 223.498 29.71 221.098 29.78C222.188 29.86 223.038 30.635 223.663 32.025L225.448 36H222.543L220.753 32.035C220.258 30.93 219.683 30.59 218.268 30.59H215.693V36ZM215.693 28.34H219.743C221.428 28.34 222.428 27.515 222.428 26.115C222.428 24.74 221.463 23.98 219.733 23.98H215.693V28.34ZM237.87 21.7V24.02H233.22V36H230.59V24.02H225.94V21.7H237.87ZM255.945 21.7H260.185V36H257.555V23.91L253.31 36H250.11L245.915 23.91V36H243.375V21.7H247.69L251.795 33.53L255.945 21.7ZM264.365 21.7V36H261.735V21.7H264.365ZM271.665 21.4C275.205 21.4 277.46 23.185 277.46 26.11H274.92C274.92 24.59 273.595 23.635 271.635 23.635C270 23.635 268.365 24.305 268.365 25.73C268.365 27.02 269.645 27.235 271.825 27.56L272.49 27.66C274.895 28.02 277.96 28.485 277.96 31.805C277.96 34.79 275.48 36.3 271.82 36.3C267.835 36.3 265.535 34.515 265.535 31.46H268.075C268.075 33.09 269.505 34.065 271.795 34.065C273.755 34.065 275.37 33.35 275.37 31.815C275.37 30.4 274.06 30.19 272.06 29.9L271.22 29.775C268.815 29.425 265.775 28.995 265.775 25.845C265.775 22.925 268.39 21.4 271.665 21.4ZM284.868 21.4C288.408 21.4 290.663 23.185 290.663 26.11H288.123C288.123 24.59 286.798 23.635 284.838 23.635C283.203 23.635 281.568 24.305 281.568 25.73C281.568 27.02 282.848 27.235 285.028 27.56L285.693 27.66C288.098 28.02 291.163 28.485 291.163 31.805C291.163 34.79 288.683 36.3 285.023 36.3C281.038 36.3 278.738 34.515 278.738 31.46H281.278C281.278 33.09 282.708 34.065 284.998 34.065C286.958 34.065 288.573 33.35 288.573 31.815C288.573 30.4 287.263 30.19 285.263 29.9L284.423 29.775C282.018 29.425 278.978 28.995 278.978 25.845C278.978 22.925 281.593 21.4 284.868 21.4ZM294.951 21.7V36H292.321V21.7H294.951ZM296.35 28.85C296.35 24.39 299.15 21.4 303.2 21.4C307.245 21.4 310.05 24.39 310.05 28.85C310.05 33.31 307.245 36.3 303.2 36.3C299.15 36.3 296.35 33.31 296.35 28.85ZM298.99 28.85C298.99 32.095 300.545 33.97 303.2 33.97C305.85 33.97 307.41 32.095 307.41 28.85C307.41 25.605 305.85 23.73 303.2 23.73C300.545 23.73 298.99 25.605 298.99 28.85ZM324.337 21.7V36H320.392L313.982 23.785V36H311.442V21.7H315.687L321.797 33.305V21.7H324.337Z" fill="#171717"/>
</svg>
