<svg width="18" height="17" viewBox="0 0 18 17" fill="none" xmlns="http://www.w3.org/2000/svg">
<path fill-rule="evenodd" clip-rule="evenodd" d="M9 17C4.99286 17 2.98928 17 1.74586 15.7541C0.499999 14.5107 0.5 12.5071 0.5 8.5C0.5 4.49286 0.499999 2.48928 1.74586 1.24586C2.98928 -1.15803e-06 4.99286 0 9 0C13.0071 0 15.0107 -1.15803e-06 16.2541 1.24586C17.5 2.48928 17.5 4.49286 17.5 8.5C17.5 12.5071 17.5 14.5107 16.2541 15.7541C15.0107 17 13.0071 17 9 17ZM10.4159 4.72114C10.4159 4.34563 10.2667 3.98551 10.0012 3.71998C9.73564 3.45446 9.37551 3.30529 9 3.30529C8.62449 3.30529 8.26436 3.45446 7.99884 3.71998C7.73331 3.98551 7.58414 4.34563 7.58414 4.72114V7.08414H5.22114C4.84563 7.08414 4.4855 7.23331 4.21998 7.49884C3.95446 7.76436 3.80529 8.12449 3.80529 8.5C3.80529 8.87551 3.95446 9.23564 4.21998 9.50116C4.4855 9.76669 4.84563 9.91586 5.22114 9.91586H7.58414V12.2789C7.58414 12.6544 7.73331 13.0145 7.99884 13.28C8.26436 13.5455 8.62449 13.6947 9 13.6947C9.37551 13.6947 9.73564 13.5455 10.0012 13.28C10.2667 13.0145 10.4159 12.6544 10.4159 12.2789V9.91586H12.7789C13.1544 9.91586 13.5145 9.76669 13.78 9.50116C14.0455 9.23564 14.1947 8.87551 14.1947 8.5C14.1947 8.12449 14.0455 7.76436 13.78 7.49884C13.5145 7.23331 13.1544 7.08414 12.7789 7.08414H10.4159V4.72114Z" fill="#FF8400"/>
</svg>
