<svg width="50" height="50" viewBox="0 0 50 50" fill="none" xmlns="http://www.w3.org/2000/svg">
<rect width="50" height="50" rx="25" fill="url(#paint0_linear_206_7)" fill-opacity="0.06"/>
<rect x="0.5" y="0.5" width="49" height="49" rx="24.5" stroke="#EAEAEA" stroke-opacity="0.4"/>
<path d="M18.4 30.8C18.7183 30.7072 19.0604 30.7446 19.351 30.904C19.6417 31.0634 19.8572 31.3317 19.95 31.65C20.0428 31.9683 20.0054 32.3104 19.846 32.601C19.6866 32.8917 19.4183 33.1072 19.1 33.2C18.475 33.3825 18.025 33.575 17.7363 33.75C18.0338 33.9288 18.5037 34.1287 19.1562 34.315C20.6 34.7275 22.6663 35 25 35C27.3337 35 29.4 34.7275 30.8437 34.315C31.4975 34.1287 31.9663 33.9288 32.2638 33.75C31.9763 33.575 31.5263 33.3825 30.9013 33.2C30.588 33.1031 30.3254 32.887 30.17 32.5982C30.0146 32.3095 29.9789 31.9712 30.0705 31.6564C30.1622 31.3416 30.3739 31.0754 30.66 30.9152C30.9461 30.755 31.2837 30.7136 31.6 30.8C32.435 31.0437 33.2 31.3562 33.7875 31.7575C34.3313 32.1313 35 32.7825 35 33.75C35 34.7288 34.315 35.385 33.7625 35.7588C33.165 36.1613 32.3838 36.475 31.53 36.7188C29.8075 37.2125 27.5 37.5 25 37.5C22.5 37.5 20.1925 37.2125 18.47 36.7188C17.6163 36.475 16.835 36.1613 16.2375 35.7588C15.685 35.3838 15 34.7288 15 33.75C15 32.7825 15.6687 32.1313 16.2125 31.7575C16.8 31.3562 17.565 31.0437 18.4 30.8ZM25 19.375C23.075 19.375 21.8725 21.4588 22.835 23.125C23.2812 23.8987 24.1062 24.375 25 24.375C26.925 24.375 28.1275 22.2912 27.165 20.625C26.9456 20.245 26.63 19.9294 26.25 19.71C25.8699 19.4905 25.4388 19.375 25 19.375Z" fill="#EAEAEA"/>
<path opacity="0.3" d="M25 12.5C27.4864 12.5 29.871 13.4877 31.6291 15.2459C33.3873 17.004 34.375 19.3886 34.375 21.875C34.375 25.085 32.625 27.695 30.8125 29.55C30.092 30.2799 29.3177 30.9547 28.4963 31.5687C27.7537 32.1262 26.0563 33.1713 26.0563 33.1713C25.7343 33.3542 25.3703 33.4505 25 33.4505C24.6297 33.4505 24.2657 33.3542 23.9437 33.1713C23.1013 32.6828 22.2867 32.1478 21.5037 31.5687C20.6823 30.9547 19.908 30.2799 19.1875 29.55C17.375 27.695 15.625 25.085 15.625 21.875C15.625 19.3886 16.6127 17.004 18.3709 15.2459C20.129 13.4877 22.5136 12.5 25 12.5Z" fill="#EAEAEA"/>
<defs>
<linearGradient id="paint0_linear_206_7" x1="0" y1="0" x2="51.425" y2="1.51126" gradientUnits="userSpaceOnUse">
<stop stop-color="#EAEAEA"/>
<stop offset="1" stop-color="#999999" stop-opacity="0.8"/>
</linearGradient>
</defs>
</svg>
